Hanif_Shallow_2_5_grf.mot
version=1
nRows=58
nColumns=19
inDegrees=yes
endheader
time	right_ground_force_vx	right_ground_force_vy	right_ground_force_vz	right_ground_force_px	right_ground_force_py	right_ground_force_pz	right_ground_torque_x	right_ground_torque_y	right_ground_torque_z	left_ground_force_vx	left_ground_force_vy	left_ground_force_vz	left_ground_force_px	left_ground_force_py	left_ground_force_pz	left_ground_torque_x	left_ground_torque_y	left_ground_torque_z
0.575000	4.281960	227.785000	39.464800	0.238677	0.000000	-1.426850	-18.016200	-0.529216	8.924060	-0.171733	233.482000	-34.841700	0.235182	0.000000	-0.972758	16.289500	-1.679940	8.649800
0.580000	3.648500	233.173000	39.190900	0.238338	0.000000	-1.426440	-18.541700	-0.583590	9.045130	-0.339245	235.477000	-35.603300	0.235660	0.000000	-0.972881	16.459600	-1.623310	8.838170
0.585000	3.369020	238.209000	38.085900	0.237951	0.000000	-1.427450	-18.700800	-0.449758	9.157180	-1.926730	237.851000	-36.532300	0.236098	0.000000	-0.973943	16.899000	-1.637750	9.061020
0.590000	3.299020	242.587000	37.381100	0.237849	0.000000	-1.426160	-19.359700	-0.464654	9.287600	-2.277500	242.972000	-37.286400	0.236492	0.000000	-0.971942	16.780600	-1.646630	9.352090
0.595000	2.951270	249.749000	37.537700	0.238881	0.000000	-1.426100	-19.947000	-0.449800	9.826770	-2.186080	251.073000	-38.885900	0.237666	0.000000	-0.974013	17.857900	-1.635760	9.961190
0.600000	2.525280	256.959000	37.044900	0.238202	0.000000	-1.425830	-20.593300	-0.359836	9.939220	-2.565290	261.576000	-39.615800	0.237319	0.000000	-0.973039	18.352200	-1.565800	10.250100
0.605000	1.127150	264.837000	36.388000	0.238106	0.000000	-1.425690	-21.264100	-0.357375	10.220900	-3.165140	271.252000	-41.041500	0.237969	0.000000	-0.973424	19.142200	-1.619360	10.813600
0.610000	-0.486214	268.186000	35.194600	0.238937	0.000000	-1.424780	-21.784500	-0.465146	10.566400	-2.903410	275.321000	-41.620800	0.238654	0.000000	-0.973615	19.477800	-1.607990	11.159500
0.615000	-1.816930	277.164000	34.705200	0.239455	0.000000	-1.425510	-22.316000	-0.468193	11.066600	-2.765160	278.527000	-42.094100	0.238385	0.000000	-0.972894	19.502200	-1.694560	11.220700
0.620000	-4.155800	286.787000	34.143000	0.239073	0.000000	-1.425190	-23.191300	-0.577346	11.335600	-3.241130	282.348000	-41.052300	0.237624	0.000000	-0.973429	19.925900	-1.742020	11.134100
0.625000	-5.478640	295.095000	33.147500	0.238860	0.000000	-1.425070	-23.903300	-0.614389	11.592800	-3.481090	285.792000	-40.457700	0.237813	0.000000	-0.973314	20.137900	-1.729050	11.302700
0.630000	-6.192200	301.712000	32.935700	0.238730	0.000000	-1.425330	-24.361900	-0.653153	11.807900	-4.540530	287.592000	-39.377300	0.238464	0.000000	-0.973662	20.379300	-1.805760	11.560500
0.635000	-7.412200	303.410000	32.384400	0.238787	0.000000	-1.425420	-24.478200	-0.705339	11.891000	-5.827500	289.296000	-38.116000	0.238815	0.000000	-0.973130	20.364300	-1.881940	11.725600
0.640000	-7.222470	309.550000	32.481500	0.238704	0.000000	-1.425850	-24.836800	-0.645994	12.105800	-6.463790	294.475000	-37.858600	0.239006	0.000000	-0.973233	20.763500	-1.792920	11.965000
0.645000	-7.744290	315.088000	32.709600	0.238139	0.000000	-1.426790	-24.988600	-0.569768	12.151300	-6.980690	304.874000	-38.142600	0.238474	0.000000	-0.973244	21.502900	-1.859100	12.207200
0.650000	-8.940020	321.121000	31.817400	0.237265	0.000000	-1.426880	-25.446900	-0.471092	12.107400	-7.232230	309.583000	-38.893100	0.238898	0.000000	-0.974021	22.077100	-1.832590	12.527100
0.655000	-9.629240	325.343000	31.477700	0.236474	0.000000	-1.427200	-25.677500	-0.515405	12.001200	-7.814370	317.143000	-39.278100	0.238663	0.000000	-0.972981	22.290100	-1.838160	12.745200
0.660000	-9.882160	326.929000	31.573600	0.235553	0.000000	-1.426280	-26.106100	-0.478538	11.761500	-7.865490	319.197000	-39.603600	0.238006	0.000000	-0.973344	22.548700	-1.802240	12.610400
0.665000	-10.032600	331.548000	31.887800	0.235632	0.000000	-1.427190	-26.173900	-0.427094	11.958100	-7.219500	322.946000	-39.451500	0.237645	0.000000	-0.972705	22.593900	-1.719800	12.610400
0.670000	-10.372100	338.519000	31.530300	0.234600	0.000000	-1.427960	-26.464100	-0.382339	11.854200	-7.079970	323.047000	-37.912800	0.237206	0.000000	-0.972631	22.576600	-1.864910	12.461500
0.675000	-10.342600	340.460000	31.585500	0.234164	0.000000	-1.428400	-26.470900	-0.213715	11.786300	-7.264830	324.730000	-36.582600	0.236644	0.000000	-0.972286	22.583000	-1.898370	12.321100
0.680000	-10.048300	344.090000	31.484200	0.233368	0.000000	-1.429050	-26.526400	-0.157851	11.634100	-6.768080	323.263000	-34.854300	0.235917	0.000000	-0.972635	22.589200	-2.038720	12.016400
0.685000	-9.042640	343.173000	31.440100	0.232763	0.000000	-1.428310	-26.705100	-0.035381	11.398900	-6.198580	323.835000	-34.142800	0.234716	0.000000	-0.972276	22.504900	-2.086840	11.632700
0.690000	-8.311840	343.738000	30.557900	0.231708	0.000000	-1.429320	-26.400000	0.111130	11.052100	-5.616390	324.545000	-33.706600	0.234953	0.000000	-0.972784	22.711300	-2.083850	11.723200
0.695000	-7.759930	343.871000	30.637300	0.230160	0.000000	-1.429350	-26.396600	0.207416	10.524900	-5.163360	325.237000	-32.779800	0.233663	0.000000	-0.971556	22.354200	-2.153570	11.312500
0.700000	-6.761050	340.776000	30.222900	0.229647	0.000000	-1.430460	-25.777200	0.277331	10.252400	-4.720080	321.957000	-32.098800	0.233976	0.000000	-0.971215	22.014700	-2.165210	11.295400
0.705000	-5.727180	337.746000	29.679100	0.228839	0.000000	-1.430410	-25.560500	0.474914	9.895410	-4.595590	320.769000	-31.789000	0.232984	0.000000	-0.971554	22.040200	-2.144510	10.927900
0.710000	-4.876290	336.753000	29.532900	0.228261	0.000000	-1.431340	-25.168000	0.572167	9.672230	-4.106110	317.725000	-30.723300	0.232555	0.000000	-0.970716	21.560000	-2.188700	10.678600
0.715000	-3.395210	332.048000	29.375800	0.226951	0.000000	-1.430680	-25.026800	0.764330	9.109340	-3.527860	314.685000	-29.658000	0.232160	0.000000	-0.971216	21.506200	-2.332030	10.452700
0.720000	-3.059830	328.663000	28.769300	0.226744	0.000000	-1.431120	-24.628000	0.733852	8.941260	-3.233940	308.342000	-28.773100	0.232327	0.000000	-0.971954	21.297800	-2.317100	10.291600
0.725000	-2.004450	327.236000	28.427800	0.226061	0.000000	-1.430950	-24.569800	0.804776	8.675570	-2.372390	308.156000	-28.527700	0.231553	0.000000	-0.971017	20.985900	-2.299020	10.034400
0.730000	-2.060930	325.501000	28.424700	0.225835	0.000000	-1.431290	-24.328300	0.857186	8.561640	-2.307020	307.302000	-27.611100	0.231349	0.000000	-0.970555	20.785300	-2.376350	9.938910
0.735000	-1.220170	322.905000	27.253000	0.225695	0.000000	-1.431860	-23.946600	0.821923	8.433050	-1.772330	305.166000	-26.230900	0.230673	0.000000	-0.971008	20.772800	-2.392430	9.645440
0.740000	-0.482233	320.545000	26.326700	0.225533	0.000000	-1.430730	-24.128700	1.018580	8.326210	-1.938120	302.542000	-25.424700	0.231299	0.000000	-0.971229	20.663800	-2.473550	9.755190
0.745000	-0.449489	321.350000	25.945300	0.225292	0.000000	-1.432950	-23.477700	0.997917	8.263800	-1.631410	302.620000	-25.023200	0.231488	0.000000	-0.971547	20.761500	-2.421780	9.803580
0.750000	0.123979	320.349000	25.420400	0.225097	0.000000	-1.432640	-23.501300	1.104370	8.177380	-1.069580	298.979000	-23.954600	0.231909	0.000000	-0.971902	20.611800	-2.387910	9.798620
0.755000	0.088604	318.861000	25.398300	0.225011	0.000000	-1.432450	-23.451500	1.061640	8.109760	-1.755170	297.281000	-23.034600	0.232211	0.000000	-0.972677	20.732900	-2.362730	9.825810
0.760000	0.424202	317.724000	25.300400	0.224982	0.000000	-1.431570	-23.646100	1.260030	8.085630	-2.242290	296.278000	-22.676300	0.233020	0.000000	-0.972032	20.477000	-2.298970	10.028200
0.765000	0.443288	318.061000	25.197500	0.224308	0.000000	-1.432690	-23.315600	1.255770	7.876990	-2.608710	296.456000	-21.836800	0.233565	0.000000	-0.971506	20.336900	-2.254460	10.183600
0.770000	0.899310	316.091000	25.617300	0.224753	0.000000	-1.432350	-23.275500	1.281710	7.974010	-3.299770	295.038000	-21.723200	0.232201	0.000000	-0.972192	20.449700	-2.244170	9.734100
0.775000	1.191580	315.754000	25.839900	0.224259	0.000000	-1.432820	-23.101400	1.210250	7.803230	-3.855260	293.253000	-21.284300	0.233855	0.000000	-0.972167	20.326300	-2.262590	10.163900
0.780000	0.718859	316.879000	25.966600	0.223732	0.000000	-1.433260	-23.044100	1.301060	7.673100	-4.422730	294.127000	-20.637000	0.234190	0.000000	-0.972194	20.399800	-2.184680	10.280500
0.785000	0.735274	315.418000	26.003700	0.223992	0.000000	-1.432370	-23.220900	1.231420	7.715890	-5.045080	293.453000	-20.677300	0.234305	0.000000	-0.972456	20.437300	-2.159240	10.293800
0.790000	0.385319	316.185000	25.480400	0.223953	0.000000	-1.433170	-23.024000	1.231710	7.719790	-5.546360	294.609000	-19.953900	0.234716	0.000000	-0.971803	20.330600	-2.139210	10.445200
0.795000	-0.140604	316.430000	25.090100	0.222977	0.000000	-1.434030	-22.772700	1.237820	7.415400	-6.348520	294.543000	-19.757700	0.234324	0.000000	-0.972024	20.399200	-2.072890	10.323800
0.800000	-0.473887	316.183000	24.956900	0.223224	0.000000	-1.432850	-23.133100	1.354590	7.498500	-6.603910	294.721000	-19.422900	0.234364	0.000000	-0.972803	20.643300	-2.042630	10.336800
0.805000	-0.400340	315.823000	24.393700	0.222496	0.000000	-1.434210	-22.675100	1.420670	7.259210	-7.235060	296.386000	-19.916600	0.234956	0.000000	-0.972038	20.541300	-2.061240	10.579200
0.810000	-1.132500	314.693000	24.276700	0.222704	0.000000	-1.434190	-22.604900	1.397330	7.301380	-7.524470	295.225000	-19.928800	0.234191	0.000000	-0.972720	20.666700	-2.074560	10.315400
0.815000	-1.188120	314.512000	24.535600	0.222025	0.000000	-1.434630	-22.453700	1.429060	7.087350	-7.330860	295.592000	-19.746400	0.234246	0.000000	-0.972602	20.654300	-2.059790	10.339600
0.820000	-1.555010	315.241000	24.619100	0.221545	0.000000	-1.434340	-22.599900	1.409450	6.952170	-7.464840	296.198000	-19.759900	0.234275	0.000000	-0.972335	20.617900	-2.014750	10.366400
0.825000	-1.254100	318.161000	24.139100	0.221270	0.000000	-1.435530	-22.429000	1.502940	6.927090	-7.827530	298.486000	-20.147500	0.233932	0.000000	-0.972125	20.718300	-2.035610	10.348200
0.830000	-1.730080	319.102000	24.383500	0.220582	0.000000	-1.435300	-22.572400	1.525230	6.731920	-7.771640	300.703000	-19.540900	0.233982	0.000000	-0.971542	20.695100	-2.066960	10.430600
0.835000	-2.002310	322.901000	24.208000	0.220077	0.000000	-1.436230	-22.543600	1.578440	6.648090	-8.005490	302.750000	-19.746400	0.232643	0.000000	-0.971632	20.862100	-1.971830	10.089300
0.840000	-1.738460	323.737000	24.689600	0.220180	0.000000	-1.435950	-22.688600	1.521410	6.696440	-8.522040	302.019000	-19.180300	0.232555	0.000000	-0.971899	20.899000	-1.988350	10.035300
0.845000	-2.849800	326.208000	24.439900	0.219467	0.000000	-1.435850	-22.901500	1.459970	6.510260	-8.268750	305.261000	-18.717400	0.232344	0.000000	-0.972373	21.263900	-2.036060	10.070400
0.850000	-3.624700	329.327000	24.243600	0.218464	0.000000	-1.436570	-22.889900	1.463710	6.239830	-9.176700	305.938000	-19.145300	0.232671	0.000000	-0.972015	21.214100	-2.066500	10.203300
0.855000	-3.464730	328.113000	23.804200	0.218548	0.000000	-1.436040	-22.978400	1.408360	6.237780	-9.128480	309.702000	-19.232700	0.232073	0.000000	-0.971280	21.241300	-1.980350	10.133200
0.860000	-3.843040	332.556000	23.450100	0.218593	0.000000	-1.437030	-22.960800	1.432020	6.333790	-8.401300	311.052000	-19.328000	0.230699	0.000000	-0.972190	21.607900	-2.019680	9.747460
